<svg xmlns="http://www.w3.org/2000/svg" viewBox="0 0 512 512"><g data-name="Layer 2"><g data-name="Capa 1"><path fill="#353535" d="M458.28 61.22a7.5 7.5 0 01-5.3-12.8L466.2 35.2a83.59 83.59 0 0135.7-21.11 7.5 7.5 0 114.17 14.4A68.53 68.53 0 00476.8 45.8l-13.22 13.22a7.48 7.48 0 01-5.3 2.2z"/><circle cx="264.39" cy="52.15" r="52.15" fill="#f5d7b7"/><circle style="isolation:isolate" cx="264.39" cy="52.15" r="52.15" fill="#efc8a5" opacity=".1"/><circle cx="459.85" cy="247.61" r="52.15" fill="#f5d7b7"/><circle style="isolation:isolate" cx="459.85" cy="247.61" r="52.15" fill="#efc8a5" opacity=".1"/><circle cx="100.47" cy="411.53" r="100.47" fill="#38648c"/><path style="isolation:isolate" d="M171.5 482.57A100.47 100.47 0 101.3 395.48c8.19 5.82 19.61 11.46 35.1 17.45 13.08 5.05 29.06 10.3 47.15 15.52 5.21 18.09 10.47 34.07 15.52 47.15 6 15.49 11.63 26.91 17.45 35.1a100 100 0 0054.99-28.13z" opacity=".1"/><ellipse cx="358.575" cy="153.416" fill="#efc8a5" rx="153.977" ry="150.608" transform="rotate(-45 358.575 153.416)"/><ellipse cx="293.931" cy="100.607" fill="#f28b74" rx="24.405" ry="30.646" transform="rotate(-45 293.931 100.607)"/><ellipse cx="411.401" cy="218.074" fill="#f28b74" rx="24.405" ry="30.646" transform="rotate(-45 411.4 218.074)"/><path fill="#353535" d="M335.66 112.27a7.5 7.5 0 01-5.3-12.8 7.09 7.09 0 00-10.03-10.02 7.5 7.5 0 11-10.6-10.61 22.09 22.09 0 1131.23 31.23 7.47 7.47 0 01-5.3 2.2zM427.86 204.47a7.5 7.5 0 01-5.3-12.8 7.09 7.09 0 00-10.03-10.02 7.5 7.5 0 01-10.6-10.61 22.09 22.09 0 0131.23 31.24 7.48 7.48 0 01-5.3 2.2zM356.98 183.05a28 28 0 01-27.95-29.95 7.5 7.5 0 0114.96 1.03 13 13 0 0013.89 13.89 7.5 7.5 0 011.03 14.96q-.97.07-1.93.07z"/><path style="isolation:isolate" d="M317.67 7.63a155.97 155.97 0 00-65.59 39.29c-60.13 60.13-61.2 156.56-2.38 215.38 34.1 34.1 80.85 48.07 125.83 42.07-95.98-31.88-125.38-192.16-57.86-296.74z" opacity=".05"/><path fill="#76b7eb" d="M130.18 220.87c61.32.73 199.9 15.33 279.68 56.98A27.74 27.74 0 01423 312.22c-12.51 33.34-45.53 82.6-75.76 112.23a76.18 76.18 0 01-57.62 21.58C205.3 441.23 19.26 398.4 5.7 370.65-8.06 342.46 35.2 269.93 86.88 234a74.24 74.24 0 0143.3-13.12z"/><path style="isolation:isolate" d="M130.18 220.87c61.32.73 199.9 15.33 279.68 56.98A27.74 27.74 0 01423 312.22c-12.51 33.34-45.53 82.6-75.76 112.23a76.18 76.18 0 01-57.62 21.58C205.3 441.23 19.26 398.4 5.7 370.65-8.06 342.46 35.2 269.93 86.88 234a74.24 74.24 0 0143.3-13.12z" opacity=".1"/><path style="isolation:isolate" d="M86.88 233.99a217.92 217.92 0 00-37.26 33.48c5.23 38.55 14.23 84.91 25.2 128.5.74 2.97 1.5 5.9 2.25 8.8 64.9 19.87 158 37.98 211.48 41.19q3.44-4.42 6.6-8.94A94.58 94.58 0 00312 381.56c-.32-26.67-3.85-81.7-14.22-140.88-64.02-13.76-130.19-19.37-167.6-19.81a74.26 74.26 0 00-43.3 13.12z" opacity=".1"/><path fill="#76b7eb" d="M291.13 381.82c-.73-61.32-15.33-199.9-56.98-279.68A27.74 27.74 0 00199.78 89c-33.34 12.51-82.6 45.53-112.23 75.76a76.18 76.18 0 00-21.58 57.62c4.8 84.32 47.62 270.36 75.38 283.92 28.19 13.76 100.72-29.49 136.66-81.18a74.26 74.26 0 0013.12-43.3z"/><g opacity=".1"><path d="M115.31 322.72a7.5 7.5 0 01-7.34-6.03c-.64-3.2-3.63-22.72-3.63-26.5a7.5 7.5 0 0115-.05c.08 2.48 2.58 19.84 3.33 23.6a7.5 7.5 0 01-5.88 8.83 7.65 7.65 0 01-1.48.15zm4.03-32.54zM196.94 186.43a7.51 7.51 0 01-7.12-9.9c.55-1.64 2.04-4.77 5.39-11.63.92-1.9 1.8-3.69 2.12-4.4a7.5 7.5 0 1113.66 6.2c-.4.9-1.25 2.61-2.3 4.78-1.47 3-4.2 8.6-4.65 9.84a7.47 7.47 0 01-7.1 5.11zM231.83 332.56a7.46 7.46 0 01-3.76-1.02c-3.66-2.13-13.9-7.98-17.23-9.5a7.5 7.5 0 116.22-13.65c4.6 2.1 17.13 9.36 18.55 10.18a7.5 7.5 0 01-3.78 13.99zM180.44 458.32a7.5 7.5 0 01-7.5-7.5c0-4.13-1.08-19.71-1.6-27.2-.16-2.4-.29-4.22-.33-5.01a7.5 7.5 0 0114.97-.9c.05.77.17 2.54.33 4.87.8 11.42 1.63 23.95 1.63 28.25a7.5 7.5 0 01-7.5 7.5zM328.57 327.64a7.5 7.5 0 01-2.49-14.58c2.88-1 9.62-5.05 14.08-7.72 6.53-3.92 8.7-5.17 10.84-5.6a7.5 7.5 0 013.69 14.52c-1.12.53-4.4 2.5-6.82 3.94-5.86 3.52-12.5 7.5-16.8 9.01a7.5 7.5 0 01-2.5.43zm25.38-13.2z"/></g></g></g></svg>