<svg xmlns="http://www.w3.org/2000/svg" viewBox="0 0 320 260"><title>book_2</title><g><g><path fill="#f9f9f9" d="M160 1h159v257H160z"/><path fill="#d8d8d8" stroke="#000" stroke-width="2" stroke-miterlimit="10" d="M175 259h-15V1h15"/><path fill="#f9f9f9" stroke="#000" stroke-width="2" stroke-miterlimit="10" d="M319 1v258"/><path fill="none" stroke="#000" stroke-width="2" stroke-miterlimit="10" d="M194 42h91M194 64h61M194 86h85M194 116h35M194 141h85M194 173h43M194 202h74M175 1l144 1M175 259l144-1"/><path fill="#f9f9f9" d="M160 258H1V1h159z"/><path fill="#d8d8d8" stroke="#000" stroke-width="2" stroke-miterlimit="10" d="M145 259h15V1h-15"/><path fill="#f9f9f9" stroke="#000" stroke-width="2" stroke-miterlimit="10" d="M1 1v258"/><path fill="none" stroke="#000" stroke-width="2" stroke-miterlimit="10" d="M126 42H35M126 64H65M126 86H41M126 116H91M126 141H41M126 173H83M126 202H52M145 1L1 2M145 259L1 258"/></g></g></svg>