<svg xmlns="http://www.w3.org/2000/svg" viewBox="0 0 511.819 511.819" enable-background="new 0 0 511.819 511.819"><path fill="#E14B4B" d="M511.82 272.06v26.48s-8.45 14.88-14.03 17.2H396.5l-7.43-2.32-3.27 7.44H133.05l-.67-.24-11.4-3.95L35 327.82s-2.72-.13-6.63-.64c-10.95-1.42-31.16-5.86-26.37-18.88 0 0-4.56-24.7 0-39.02 0 0 1.4-20 18.57-26.96 17.2-6.96 67.84-20.45 95.72-24.6 0 0 24.62-7.45 35.3-17.2 0 0 24.12-18.03 53.9-31.08 16.04-7.03 33.2-11.17 50.65-12.8 33.74-3.17 107.1-8.05 153.78 3.44 39.66 9.77 65.95 32.17 79.8 47.15 7.6 8.22 11.73 18.96 11.73 30.16v10.04l3.25 11.6c.02 0 7.1 5.12 7.1 13.02z"/><path fill="#2E3235" d="M132.6 315.9c0 1.58-.08 3.17-.22 4.72l-11.4-3.95L35 327.82s-2.72-.13-6.63-.64c-.8-3.63-1.22-7.4-1.22-11.28 0-29.1 23.6-52.7 52.7-52.7s52.7 23.6 52.7 52.7z"/><circle cx="79.883" cy="315.9" r="43.072" fill="#3E4347"/><path fill="#2E3235" d="M388.06 315.7l1-2.3 7.45 2.32h96.95c-.1-29.02-23.65-52.52-52.7-52.52-29.04 0-52.6 23.5-52.7 52.5z"/><g fill="#3E4347"><circle cx="440.747" cy="315.9" r="43.072"/><path d="M287.5 166.65c-8.94.3-14.6.6-14.72.63h-.64c-.9-.02-1.8-.02-2.7-.02-39.04 0-77.96 23.2-97.68 37.02-8.92 6.24-15.92 15.03-20 24.95l124.48-9.94 11.26-52.65zM403.77 174.44c-12.37-5.4-41.82-8.38-83.07-8.38-4.83 0-9.52.05-13.94.1l-4.48 51.04 123.35-9.84c.4-2.3.73-4.5.97-6.5l.02-.16.03-.16c1.3-7.55-12.75-19.92-22.88-26.1z"/></g><g fill="#FFD83B"><path d="M11.02 261.47s17.13-19.95 36.34-18.45c4.67.37 18.63 6.62-3.2 18.45-6.84 3.7-20.28 5.87-30.5 6.03-8.3.1-2.64-6.03-2.64-6.03zM501.5 247.44V237.4c0-4.35-.8-8.56-2-12.64-6.9-.86-15.57-1.3-18.38 1.52-3.75 3.75-3.75 17.44 0 21.2 3.13 3.12 13.6 2.24 20.72 1.2l-.34-1.24z"/></g><circle cx="79.883" cy="315.9" r="28.752" fill="#CBD6E0"/><circle cx="79.883" cy="315.9" r="23.456" fill="#939799"/><g fill="#CBD6E0"><circle cx="79.883" cy="315.9" r="16.88"/><circle cx="440.747" cy="315.9" r="28.752"/></g><circle cx="440.747" cy="315.9" r="23.456" fill="#939799"/><circle cx="440.747" cy="315.9" r="16.88" fill="#CBD6E0"/><g fill="#5A5F63"><path d="M180.88 226.9l26.2-2.1L240 171.23c-11.44 2.94-22.3 7.28-32.3 12.06l-26.82 43.6zM216.3 224.06l13.66-1.1L264 167.64c-4.7.25-9.35.77-13.97 1.58l-33.73 54.86zM309.4 216.64l26.2-2.1 28.9-47.02c-7.3-.55-15.38-.95-24.18-1.17l-30.92 50.3zM344.8 213.8l13.67-1.08 26.42-42.96c-3.7-.58-7.64-1.1-12.06-1.54L344.8 213.8z"/></g></svg>