<svg xmlns="http://www.w3.org/2000/svg" viewBox="0 0 455.33203 446.4375"><title>chimney</title><g><g><path fill="#f76d52" d="M43.8 98.52h367.73v347.92H43.8z"/><path fill="#d84b3d" d="M43.8 98.52h367.73v68.1H43.8zM43.8 98.52h38.07v347.92H43.8z"/><path fill="#daf3fe" d="M43.8 229.63h367.73v16.03H43.8zM43.8 334.03h367.73v16.02H43.8zM143.97 342.94H160v103.5h-16.03zM146.75 116.5h16.02v121.14h-16.02zM292.55 116.5h16.02v121.14h-16.02zM73.86 236.12h16.02v103.92H73.86zM219.65 236.12h16.02v103.92h-16.02zM365.45 236.12h16.02v103.92h-16.02zM289.77 342.94h16.02v103.5h-16.03z"/><path fill="#374951" d="M455.33 31.1v71.04a31.1 31.1 0 0 1-31.12 31.1H31.1A31.1 31.1 0 0 1 0 102.15V31.1A31.1 31.1 0 0 1 31.1 0h393.1a31.1 31.1 0 0 1 31.13 31.1z"/><path fill="#4a5c66" d="M455.33 31.1v71.04a31.1 31.1 0 0 1-31.12 31.1H112.83a31.1 31.1 0 0 1-31.12-31.1V31.1A31.1 31.1 0 0 1 112.82 0h311.4a31.1 31.1 0 0 1 31.1 31.1z"/></g></g></svg>