<svg xmlns="http://www.w3.org/2000/svg" width="512" height="512"><path fill="#3d9ae2" d="M405.26 0C346.3 0 298.52 47.8 298.52 106.74l106.74 20 106.74-20C512 47.8 464.2 0 405.26 0z"/><path fill="#fff5f5" d="M278.5 270.14L447.37 512H512V106.74H298.52z"/><path fill="#1865a1" d="M298.52 106.74H256l-20.02 99.6 62.54-20z"/><path fill="#3d9ae2" d="M80.16 106.74l60.15 99.6 115.7-20v-79.6z"/><path fill="#efe2dd" d="M298.52 186.34H256l-20.02 83.8 62.54-20.02z"/><path fill="#fff5f5" d="M160.32 186.34l-20 83.8L256 250.12v-63.78z"/><path fill="#4f2f25" d="M358.37 154.58h30v42.52h-30z"/><path fill="#efe2dd" d="M160.32 186.34l-80.16-79.6L0 186.34V512h64.64l95.68-261.88z"/><path fill="#724435" d="M65.16 191.78h30v42.53h-30z"/><path fill="#4f2f25" d="M422.15 154.58h30v42.52h-30z"/><path fill="#1865a1" d="M351.68 250.12H256l-20.02 126.33 211.38-20.02z"/><path fill="#3d9ae2" d="M160.32 250.12l31.9 93.82 63.78 12.5V250.1z"/><path fill="#efe2dd" d="M235.98 356.43L256 512h191.36V356.43z"/><path fill="#fff5f5" d="M160.32 250.12l-95.68 106.3V512h63.8l31.88-20.02 31.9 20.02H256V356.43z"/><path fill="#a05f4b" d="M128.43 402.5h63.78V512h-63.77z"/></svg>