<svg xmlns="http://www.w3.org/2000/svg" viewBox="0 0 512 512" enable-background="new 0 0 512 512"><path fill="#FF7059" d="M256 40.33C127.56 40.33 20.95 133.53 0 256c20.96 122.46 127.57 215.67 256 215.67 128.44 0 235.04-93.2 256-215.68C491.04 133.53 384.43 40.32 256 40.32z"/><path fill="#fff" d="M256 131.65c-106.26 0-199.06 50.04-248.68 124.32C56.94 330.3 149.74 380.34 256 380.34c106.24 0 199.05-50.03 248.7-124.37C455.04 181.7 362.23 131.65 256 131.65z"/><path fill="#80DCFF" d="M214.47 134.25c6.5 9.32 7.6 21.78 3.54 33.67 11.3-6.14 24.25-9.62 37.98-9.62 44.08 0 79.85 35.76 79.85 79.8 0 44.06-35.77 79.86-79.84 79.86-44.02 0-79.8-35.8-79.8-79.85 0-13.76 3.48-26.7 9.63-38.02-13.8 4.7-28.36 2.57-37.9-6.98-10.3-10.3-12.05-26.36-5.88-41.08-5.78 2.17-11.46 4.5-17.04 6.98-13.96 23.1-22 50.16-22 79.1 0 57.63 31.85 107.77 78.9 133.86 23.63 5.46 48.46 8.38 74.1 8.38 25.63 0 50.48-2.92 74.14-8.4 47.04-26.08 78.88-76.22 78.88-133.83 0-28.93-8.04-56-22-79.08-39.3-17.5-83.84-27.37-131.03-27.37-14.12 0-27.97.9-41.53 2.6z"/><path fill="#34495E" d="M185.83 200.08c-6.15 11.3-9.64 24.26-9.64 38.03 0 44.06 35.78 79.86 79.8 79.86 44.06 0 79.83-35.8 79.83-79.85 0-44.04-35.77-79.8-79.84-79.8-13.75 0-26.7 3.48-38 9.62-2.4 7.04-6.57 13.88-12.5 19.76-5.84 5.85-12.65 10-19.67 12.4zm33.96 1.78c8.33-8.34 20.7-9.52 27.66-2.56 6.94 6.93 5.8 19.34-2.6 27.7-8.32 8.33-20.76 9.52-27.67 2.6-6.96-6.95-5.8-19.33 2.6-27.74z"/><g fill="#fff"><path d="M244.85 227c8.4-8.36 9.55-20.77 2.6-27.7-6.96-6.96-19.32-5.78-27.66 2.56-8.4 8.4-9.56 20.8-2.6 27.74 6.9 6.92 19.34 5.74 27.65-2.6zM147.93 193.1c9.54 9.55 24.1 11.68 37.9 6.98 7.02-2.4 13.83-6.55 19.67-12.4 5.93-5.88 10.12-12.72 12.5-19.76 4.06-11.9 2.98-24.35-3.53-33.67-25.36 3.18-49.65 9.24-72.42 17.77-6.17 14.72-4.43 30.77 5.88 41.08z"/></g></svg>