<svg xmlns="http://www.w3.org/2000/svg" viewBox="0 0 512 512"><g fill="#5d9cec"><path d="M192 112v48l-48-8zM360 160H192v-48c30.4 0 66 0 88 0 16 0 80 48 80 48z"/></g><path fill="#4a89dc" d="M280 112c-8.86 0-35.96 0-48 0 16 0 80 48 80 48h48s-64-48-80-48z"/><path fill="#ed5565" d="M511.16 204.42l-5.4-10.8 3.85-3.8a7.98 7.98 0 00-2.62-13.12c-1.67-.67-41.73-16.44-144.06-24.5-17.43-13-66.25-48.2-82.93-48.2h-96c-31.53 0-114.13 40.18-129.88 48H16a8 8 0 00-8 8v20.69l-5.66 5.65A7.97 7.97 0 000 192v56c0 2.13.84 4.16 2.34 5.66l24 23.99a7.92 7.92 0 002.6 1.73c.98.41 2.02.62 3.06.62h472a8 8 0 008-8v-64c0-1.24-.29-2.47-.84-3.58zM200 120h80c6.26 0 30.62 14.8 55.27 32H200v-32zm-16 9.09v21.47l-21.48-3.58 21.48-17.9z"/><path fill="#da4453" d="M208 200h-16a8 8 0 110-16h16a8 8 0 110 16z"/><g fill="#ffce54"><path d="M88 328h64c0 48.64-14.32 80-32 80s-32-31.36-32-80zM368 328h64c0 48.64-14.32 80-32 80s-32-31.36-32-80z"/></g><path fill="#656d78" d="M448 296v32h-96v-32z"/><path fill="#434a54" d="M416 296v32h32v-32z"/><path fill="#e6e9ed" d="M448 272v24h-96v-24c0-26.48 21.52-48 48-48s48 21.52 48 48z"/><path fill="#ccd1d9" d="M400 224a47.6 47.6 0 00-16 2.8 48.03 48.03 0 0132 45.2v24h32v-24c0-26.48-21.52-48-48-48z"/><path fill="#656d78" d="M168 296v32H72v-32z"/><path fill="#e6e9ed" d="M168 272v24H72v-24c0-26.48 21.52-48 48-48s48 21.52 48 48z"/><path fill="#434a54" d="M136 296v32h32v-32z"/><path fill="#ccd1d9" d="M120 224a47.6 47.6 0 00-16 2.8 48.03 48.03 0 0132 45.2v24h32v-24c0-26.48-21.52-48-48-48z"/><g fill="#da4453"><path d="M493.96 172.52s.02 0 .02 0h.01c.23-.22.18-.18-.03 0zM511.16 204.42l-5.4-10.79 3.84-3.77a7.95 7.95 0 002.24-7.26 7.97 7.97 0 00-4.85-5.86c-.5-.2-4.65-1.83-13-4.2l-20.23 21.1 5.4 10.8c.55 1.09.84 2.32.84 3.56v64a8 8 0 01-8 8h32a8 8 0 008-8v-64c0-1.24-.29-2.47-.84-3.58z"/></g></svg>