<svg xmlns="http://www.w3.org/2000/svg" width="512" height="512" enable-background="new 0 0 497 497" viewBox="0 0 497 497"><path fill="#db2116" d="M319.24 28.8c-2.67 0-5.32-.28-7.9-.83l-44.2 177.37h91.88V106.7c23.56-32.44.3-77.9-39.78-77.9z"/><path fill="#ff3a2f" d="M311.33 27.97c-6.08-1.3-11.76-4.1-16.32-8.43-12.35-11.7-28.9-18.52-46.5-18.52S214.37 7.84 202 19.54c-6.5 6.15-15.28 9.28-24.23 9.25-40.1 0-63.34 45.46-39.78 77.9v83.64l110.5 68.5 82.88-154.66c15.65-28.72 3.76-67.68-20.05-76.2z"/><path fill="#a41910" d="M310.08 154.04c0-34.02-27.57-61.6-61.58-61.6-34.02 0-61.6 27.58-61.6 61.6 0 13.57 4.4 26.12 11.84 36.3v34.24l49.76 34.25 49.75-68.5c7.44-10.17 11.83-22.72 11.83-36.3z"/><path fill="#db2116" d="M51.58 120.46c-.82 2.54-1.9 4.98-3.22 7.27l140.76 92.2 9.62-29.6-60.77-83.62c-23.57-32.43-74-24.37-86.4 13.76z"/><path fill="#ff3a2f" d="M48.36 127.73c-3.1 5.38-7.55 9.9-13.06 12.92-14.95 8.14-26.55 21.77-32 38.5-5.42 16.73-4.05 34.58 3.26 49.95 3.84 8.1 4.1 17.4 1.3 25.9-12.4 38.14 23.68 74.3 61.8 61.9l79.55 25.86 99.3-83.93-121.46-126.6c-22.5-23.78-63.2-24.5-78.68-4.5z"/><path fill="#a41910" d="M167.87 167.87c-32.35-10.5-67.1 7.2-77.6 39.54s7.18 67.1 39.53 77.62c12.9 4.2 26.2 3.9 38.2-.04l32.56 10.58 47.94-36.73-49.76-68.5c-7.38-10.2-17.96-18.26-30.87-22.46z"/><path fill="#db2116" d="M56.05 403.35c2.17 1.56 4.15 3.35 5.92 5.3l131.2-105.37-25.18-18.3-98.33 31.96c-38.13 12.4-46.05 62.84-13.62 86.4z"/><path fill="#ff3a2f" d="M61.97 408.66c4.16 4.62 7.1 10.24 8.25 16.4 3.13 16.74 12.5 32 26.74 42.33s31.63 14.54 48.5 12.34c8.88-1.16 17.82 1.48 25.05 6.76 32.44 23.57 77.98.44 77.98-39.65l49.16-67.66-49.14-120.37-157.95 76.4C61 349.25 47.72 387.75 61.97 408.65z"/><path fill="#a41910" d="M137.08 307.4c-20 27.52-13.9 66.04 13.62 86.03 27.52 20 66.04 13.9 86.03-13.63 7.98-10.98 11.8-23.7 11.77-36.32l20.12-27.7-20.12-56.95-80.5 26.15c-12 3.86-22.94 11.44-30.92 22.42z"/><path fill="#db2116" d="M326.47 486.5c2.16-1.56 4.47-2.9 6.9-3.97l-59.7-157.34-25.17 18.28v103.38c0 40.1 45.54 63.22 77.97 39.65z"/><path fill="#ff3a2f" d="M333.36 482.53c5.67-2.53 11.93-3.6 18.16-2.78 16.87 2.2 34.27-2 48.5-12.35 14.23-10.34 23.6-25.6 26.74-42.32 1.64-8.8 6.9-16.48 14.17-21.72 32.43-23.57 24.5-74.02-13.62-86.42l-49.15-67.66-129.65 9.55 23.84 173.82c4.22 32.44 36.74 56.97 61.02 49.88z"/><path fill="#a41910" d="M260.27 379.8c20 27.52 58.5 33.62 86.02 13.63 27.5-20 33.6-58.5 13.62-86.03-7.98-10.98-18.9-18.55-30.92-22.4l-20.12-27.72-60.38 1.55v84.65c-.04 12.6 3.8 25.34 11.77 36.32z"/><path fill="#db2116" d="M489.14 255.03c-.84-2.54-1.4-5.15-1.67-7.78L319.4 255.4l9.6 29.58 98.33 31.95c38.13 12.38 74.2-23.78 61.8-61.9z"/><path fill="#ff3a2f" d="M487.47 247.25c-.65-6.18.28-12.46 2.97-18.13 7.3-15.37 8.68-33.22 3.25-49.95-5.45-16.73-17.05-30.36-32-38.5-7.86-4.3-13.54-11.67-16.28-20.2-12.4-38.13-62.82-46.18-86.4-13.75L248.5 258.82l172.68 31.04c32.16 6 65.54-17.33 66.3-42.6z"/><path fill="#a41910" d="M367.2 285.02c32.34-10.5 50.04-45.26 39.53-77.6s-45.26-50.06-77.6-39.55c-12.92 4.2-23.5 12.25-30.88 22.47l-49.75 68.5 80.5 26.15c11.98 3.92 25.28 4.2 38.2.02z"/><path fill="#ffd185" d="M316.03 236.88c5.07-7.93 5.08-18.47-.8-26.55s-15.9-11.32-25-8.95c-.56-9.4-6.75-17.93-16.24-21.02s-19.53.2-25.5 7.46c-5.98-7.27-16-10.54-25.5-7.46s-15.68 11.62-16.24 21.02c-9.1-2.37-19.14.88-25 8.95s-5.86 18.62-.8 26.55c-8.76 3.44-14.96 11.97-14.96 21.95 0 9.98 6.2 18.5 14.96 21.94-5.06 7.93-5.07 18.47.8 26.55s15.9 11.32 25 8.95c.56 9.4 6.75 17.93 16.24 21.02 9.5 3.07 19.52-.2 25.5-7.46 5.97 7.27 16 10.53 25.5 7.45s15.67-11.63 16.24-21.03c9.1 2.37 19.13-.88 25-8.95s5.86-18.62.8-26.55c8.75-3.44 14.96-11.96 14.96-21.94s-6.2-18.5-14.97-21.95z"/><circle cx="248.497" cy="258.827" r="45" fill="#ffba48"/><circle cx="248.497" cy="258.827" r="15" fill="#ff7a3c"/></svg>