<svg xmlns="http://www.w3.org/2000/svg" width="511pt" height="511pt" viewBox="0 -34 511.99961 511"><path fill="#cb7a6f" d="M317.63 218.17c0 36.2-29.34 65.54-65.54 65.54s-65.55-29.33-65.55-65.53 29.34-65.54 65.54-65.54 65.53 29.35 65.53 65.54zm0 0"/><path fill="#3f22a8" d="M320.43 420.23c-32.3 15.04-66.8 22.6-101.4 22.6-27.82 0-55.7-4.86-82.6-14.67C76.05 406.13 27.86 361.92.73 303.66c-1.77-3.82-.22-8.56 3.68-10.1 25.4-10.08 106.47 96.68 269.32 57.5 97.1-23.38 96-121.13 75.83-164.43-32.94-70.74-125.16-67.17-161.14-6.87-15.27 25.62-3.3 77.1 18.76 85.14 22.04 8.03 29.66 6.46 52.65 1.7.4-.07.76-.15 1.13-.24 22.13-4.15 38.87-23.56 38.87-46.9 0-26.34-21.36-47.7-47.7-47.7-5.03 0-9.86.78-14.4 2.22-.08 0-.18 0-.26.02-4.17.38-8.32.13-10.1-3.68-1.77-3.8-.1-8.33 3.7-10.1 16.62-7.74 35.28-8.54 52.52-2.26 17.23 6.3 31 18.9 38.74 35.54 9.46 20.34 10.43 43.13 2.75 64.2s-23.1 37.9-43.44 47.35c-24.94 11.62-52.92 12.82-78.78 3.4-25.86-9.44-46.5-28.37-58.1-53.32-14.33-30.73-15.82-65.2-4.2-97.05 11.6-31.84 34.94-57.26 65.67-71.56 78.33-36.5 171.76-2.43 208.24 75.93 45.15 96.98 2.97 212.63-94 257.78zm0 0"/><path fill="#7925a5" d="M506.67 179.08c-4.02 1.26-8.27-.98-9.53-5C479.2 116.63 343.3 51.05 249.4 79.44c-45.73 13.83-69.05 18.5-91.22 60.8-22.2 42.3-20.4 64.8-12.85 96.3 8.8 36.76 53.2 79.58 111.5 68.72 29.32-5.47 78.03-40.35 62.32-99.64-6-22.68-26.2-38.67-51.86-41.14-13.28-1.28-22.7 6.56-29.86 9.54-.16.07-.33.14-.5.22-18.92 6.33-32.56 24.2-32.56 45.25 0 26.35 21.37 47.7 47.7 47.7 2.57 0 5.08-.2 7.53-.58.08 0 .15 0 .2 0 4.18.5 8.28 1 9.53 5 1.26 4-.98 8.28-5 9.52-17.5 5.47-36.1 3.8-52.35-4.73-16.24-8.53-28.2-22.86-33.68-40.4-6.68-21.4-4.62-44.12 5.8-63.98 10.4-19.87 27.94-34.48 49.34-41.16 26.28-8.2 54.17-5.68 78.55 7.1 24.37 12.78 42.3 34.3 50.5 60.57 10.1 32.36 7 66.7-8.74 96.74-15.74 30.02-42.23 52.12-74.6 62.2-15.4 4.83-31.18 7.2-46.87 7.2-25.02 0-49.82-6.05-72.6-18-37.08-19.43-64.38-52.15-76.84-92.1-15.45-49.5-10.7-102 13.38-147.9 24.06-45.9 64.56-79.7 114.03-95.12C271.63-7.6 336.77-1.7 393.7 28.15c56.9 29.83 98.8 80.06 117.95 141.42 1.25 4-.98 8.27-4.98 9.5zm0 0"/><path fill="#aa27ff" d="M232.27 364.68c-25 0-49.8-6.06-72.6-18-37.08-19.44-64.36-52.16-76.83-92.13-15.44-49.47-10.7-102 13.37-147.9C120.3 60.76 160.8 27 210.26 11.56 271.6-7.62 336.75-1.72 393.67 28.12c56.92 29.85 98.82 80.08 117.96 141.43 1.25 4-.98 8.27-5 9.52-4 1.26-8.26-.98-9.5-5-17.95-57.47-57.2-104.52-110.52-132.48C333.3 13.64 272.27 8.12 214.8 26.06c-45.6 14.23-82.92 45.36-105.1 87.66-22.18 42.3-26.56 90.7-12.33 136.3 11.26 36.1 35.9 65.64 69.38 83.2 33.48 17.55 71.8 21 107.9 9.75 28.47-8.9 51.8-28.33 65.64-54.76 13.86-26.42 16.6-56.66 7.7-85.14-6.98-22.4-22.28-40.74-43.06-51.63-20.77-10.9-44.55-13.05-66.95-6.06-17.53 5.47-31.88 17.44-40.4 33.7-8.54 16.27-10.22 34.9-4.75 52.42 4.25 13.62 13.57 24.8 26.22 31.43 12.65 6.63 27.13 7.94 40.77 3.68 4-1.24 8.26 1 9.5 5 1.26 4-.98 8.27-4.98 9.52-17.52 5.47-36.1 3.8-52.36-4.73-16.25-8.53-28.2-22.87-33.67-40.38-6.7-21.4-4.64-44.14 5.77-64 10.42-19.86 27.95-34.48 49.35-41.16 26.28-8.2 54.17-5.68 78.55 7.1 24.38 12.8 42.32 34.3 50.52 60.57 10.1 32.36 6.98 66.72-8.76 96.74-15.74 30.02-42.23 52.12-74.6 62.22-15.4 4.8-31.18 7.18-46.87 7.18zm0 0"/><path fill="#6831ff" d="M219 442.84c-27.8 0-55.67-4.88-82.56-14.68-60.4-22.02-108.58-66.24-135.7-124.5-1.78-3.82-.13-8.34 3.67-10.1 3.82-1.78 8.34-.13 10.1 3.67 25.43 54.6 70.57 96 127.14 116.64 56.57 20.63 117.8 18 172.38-7.42 43.3-20.16 76.16-55.98 92.52-100.85s14.27-93.43-5.9-136.73C367.72 98.1 283.37 67.37 212.62 100.3c-27.05 12.6-47.57 34.96-57.8 63-10.22 28.03-8.9 58.36 3.68 85.4 9.9 21.28 27.5 37.42 49.55 45.46 22.04 8.04 45.9 7.02 67.17-2.9 16.65-7.74 29.28-21.5 35.57-38.76 6.3-17.26 5.5-35.93-2.26-52.58-6.02-12.95-16.73-22.78-30.15-27.67-13.42-4.9-27.95-4.27-40.9 1.76-3.8 1.78-8.33.13-10.1-3.68-1.77-3.8-.12-8.32 3.68-10.1 16.63-7.74 35.3-8.54 52.52-2.26 17.24 6.3 31 18.9 38.74 35.54 9.46 20.33 10.44 43.13 2.75 64.2-7.67 21.07-23.1 37.9-43.44 47.35-24.94 11.62-52.92 12.82-78.78 3.4-25.86-9.43-46.5-28.37-58.12-53.32-14.3-30.73-15.8-65.2-4.18-97.04 11.6-31.86 34.93-57.28 65.67-71.6 78.34-36.46 171.76-2.4 208.23 75.95 45.16 97 3 212.63-94 257.78-32.3 15.05-66.8 22.6-101.42 22.6zm0 0"/><path fill="#fff75b" d="M283.63 218.17c0 17.42-14.12 31.54-31.54 31.54s-31.55-14.1-31.55-31.53 14.13-31.54 31.54-31.54 31.53 14.12 31.53 31.54zm0 0"/><path fill="#fff" d="M241.28 357.04c0 8.4-6.8 15.2-15.2 15.2-8.4 0-15.2-6.8-15.2-15.2 0-8.4 6.8-15.2 15.2-15.2 8.4 0 15.2 6.8 15.2 15.2zm0 0"/><path fill="#ff7ae5" d="M433.13 182.6c0 11.58-9.4 20.97-20.97 20.97-11.6 0-20.98-9.4-20.98-20.97 0-11.58 9.4-20.97 20.98-20.97s20.97 9.4 20.97 20.97zm0 0"/><path fill="#fff75b" d="M116.93 121.8c0 11.58-9.4 20.97-20.98 20.97s-20.97-9.4-20.97-20.98c0-11.6 9.4-20.98 20.97-20.98s20.98 9.4 20.98 20.97zm0 0M437.1 403.3h-4.5v-4.48c0-4.2-3.4-7.6-7.6-7.6-4.2 0-7.6 3.4-7.6 7.6v4.48h-4.47c-4.2 0-7.6 3.4-7.6 7.6 0 4.2 3.4 7.6 7.6 7.6h4.48v4.48c0 4.2 3.4 7.6 7.6 7.6 4.2 0 7.6-3.4 7.6-7.6v-4.48h4.5c4.2 0 7.6-3.4 7.6-7.6 0-4.2-3.4-7.6-7.6-7.6zm0 0"/><path fill="#fff" d="M403.27 71.83h-4.48v-4.48c0-4.2-3.42-7.6-7.62-7.6s-7.6 3.4-7.6 7.6v4.48h-4.47c-4.2 0-7.6 3.4-7.6 7.6 0 4.2 3.4 7.6 7.6 7.6h4.48v4.48c0 4.2 3.4 7.6 7.6 7.6 4.2 0 7.6-3.4 7.6-7.6v-4.47h4.5c4.18 0 7.6-3.4 7.6-7.6 0-4.2-3.42-7.6-7.6-7.6zm0 0"/><path fill="#ff73b1" d="M81.58 50.8c-4.2 0-7.6-3.42-7.6-7.62V19.02c0-4.2 3.4-7.6 7.6-7.6s7.6 3.4 7.6 7.6v24.16c0 4.2-3.4 7.6-7.6 7.6zm0 0M93.66 38.7H69.5c-4.2 0-7.6-3.4-7.6-7.6s3.4-7.6 7.6-7.6h24.16c4.2 0 7.6 3.4 7.6 7.6s-3.4 7.6-7.6 7.6zm0 0"/><g fill="#fff"><path d="M87.06 328.2h-4.48v-4.5c0-4.2-3.4-7.6-7.6-7.6-4.2 0-7.6 3.4-7.6 7.6v4.5H62.9c-4.2 0-7.6 3.4-7.6 7.6 0 4.2 3.4 7.6 7.6 7.6h4.48v4.47c0 4.2 3.4 7.6 7.6 7.6 4.2 0 7.6-3.4 7.6-7.6v-4.48h4.48c4.2 0 7.6-3.4 7.6-7.6 0-4.2-3.4-7.6-7.6-7.6zm0 0M296 262.38c0 5.03-4.07 9.12-9.1 9.12s-9.13-4.1-9.13-9.13 4.08-9.12 9.12-9.12 9.1 4.1 9.1 9.13zm0 0M261.2 107.06c0 5.04-4.07 9.12-9.1 9.12-5.05 0-9.13-4.08-9.13-9.12 0-5.04 4.08-9.12 9.12-9.12 5.03 0 9.1 4.08 9.1 9.12zm0 0M326.75 372.24c0 5.04-4.08 9.12-9.12 9.12-5.03 0-9.12-4.08-9.12-9.12 0-5.04 4.1-9.12 9.13-9.12 5.04 0 9.12 4.08 9.12 9.12zm0 0"/></g><path fill="#6831ff" d="M57.16 203.57c0 5.04-4.1 9.13-9.12 9.13-5.04 0-9.13-4.1-9.13-9.13 0-5.03 4.1-9.12 9.14-9.12 5.03 0 9.12 4.1 9.12 9.12zm0 0"/><path d="M476.76 212.7c0 5.03-4.08 9.12-9.12 9.12-5.04 0-9.12-4.1-9.12-9.12 0-5.04 4.08-9.13 9.12-9.13 5.04 0 9.12 4.1 9.12 9.13zm0 0"/></svg>