<svg xmlns="http://www.w3.org/2000/svg" viewBox="0 0 503.85604 295.36386"><title>hand-holding</title><g><g><path fill="#ffc552" d="M434.36 26.06a17.37 17.37 0 0 0-17.38 17.38v86.87h34.75V43.45a17.37 17.37 0 0 0-17.37-17.38zM69.5 26.06a17.37 17.37 0 0 1 17.37 17.38v86.87H52.12V43.45A17.37 17.37 0 0 1 69.5 26.06z"/><path fill="#ffe5ba" d="M18.21.02c9.36.44 16.55 8.5 16.55 17.85l17.37 77.7L104.25 139h18.86a4.34 4.34 0 0 0 3.85-6.37l-17.7-33.56A17.37 17.37 0 0 1 134 74.67s44.74 67.08 64.88 95.44a52.2 52.2 0 0 1 9.6 30.22v86.36a8.7 8.7 0 0 1-8.67 8.68H139a8.7 8.7 0 0 1-8.7-8.68v-43.44L27.64 132a8.7 8.7 0 0 1-2.1-3.94L0 17.36A17.38 17.38 0 0 1 18.2.03z"/><path fill="#ffd686" d="M12.8.6L40.2 122 156.73 243.6v51.76H139a8.7 8.7 0 0 1-8.7-8.68v-43.44L27.64 132a8.7 8.7 0 0 1-2.1-3.94L0 17.36A17.38 17.38 0 0 1 12.8.62z"/><path fill="#ffe5ba" d="M485.64.02c-9.34.44-14.46 8.72-16.53 17.85-5.06 22.3-17.37 77.7-17.37 77.7L399.6 139h-18.85a4.34 4.34 0 0 1-3.84-6.37l17.7-33.56a17.37 17.37 0 1 0-24.74-24.4s-44.75 67.08-64.88 95.44a52.2 52.2 0 0 0-9.62 30.22v86.36a8.7 8.7 0 0 0 8.7 8.68h60.8a8.7 8.7 0 0 0 8.68-8.68v-43.44L476.25 132a8.7 8.7 0 0 0 2.07-3.94l25.55-110.7A17.37 17.37 0 0 0 485.65.03z"/><path fill="#ffd686" d="M491.05.6L463.68 122 347.13 243.6v51.76h17.73a8.7 8.7 0 0 0 8.7-8.68v-43.44L476.22 132a8.7 8.7 0 0 0 2.08-3.94l25.56-110.7A17.38 17.38 0 0 0 491.06.62z"/></g></g></svg>