<svg xmlns="http://www.w3.org/2000/svg" viewBox="0 0 58.14437 55.25488"><title>heart_1</title><g><g><path fill="#c65454" d="M29 55.2q-.9-.63-1.78-1.28l-.1-.08.1-.08c11.26-8.88 19.44-18.3 23.64-27.26a19.83 19.83 0 0 0 .52-15.58A17.66 17.66 0 0 0 41.56.82a14.18 14.18 0 0 0-1.4-.48v-.2a13.1 13.1 0 0 1 1.74-.1 14.82 14.82 0 0 1 5.55 1.12 16.93 16.93 0 0 1 9.4 9.66 18.98 18.98 0 0 1-.5 14.9c-3.2 6.8-10.52 17.46-27.24 29.5l-.05.03zM56.27 25.67c-3.7 7.86-11.54 18.18-27.22 29.46q-.9-.64-1.77-1.3c13.22-10.4 20.2-19.87 23.67-27.3 4.55-9.7.6-21.75-9.35-25.8a14.2 14.2 0 0 0-1.42-.5 14.1 14.1 0 0 1 7.24 1.02c9.4 3.83 13.16 15.22 8.85 24.42z"/><path fill="#ff5f5f" d="M27.22 53.92C11.76 42.44 4.85 32.22 1.8 25.68a18.96 18.96 0 0 1-.5-14.9 16.9 16.9 0 0 1 9.38-9.64 16.1 16.1 0 0 1 2.8-.86A13.9 13.9 0 0 1 16.23 0a15.24 15.24 0 0 1 9.3 3.45 19.4 19.4 0 0 1 3.5 3.5c.63-.8 4.8-6 11.12-6.8a12.7 12.7 0 0 1 1.48.5 17.87 17.87 0 0 1 9.92 10.2 20.04 20.04 0 0 1-.52 15.73c-4.22 9-12.4 18.44-23.7 27.34l-.06.05zM50.95 26.54c-3.48 7.42-10.45 16.88-23.67 27.3-14.5-10.78-21.85-20.63-25.4-28.2-4.3-9.2-.56-20.6 8.84-24.4A16.13 16.13 0 0 1 13.5.37a14.47 14.47 0 0 1 12 3.15 18.67 18.67 0 0 1 3.55 3.6s4.24-6 11.13-6.9a14.2 14.2 0 0 1 1.42.5c9.94 4.05 13.9 16.1 9.35 25.8z"/></g></g></svg>