<svg xmlns="http://www.w3.org/2000/svg" viewBox="0 0 347.121 512"><g data-name="Layer 2"><g data-name="Capa 1"><path fill="#576574" d="M128.35 471.71v25.16A15.12 15.12 0 00143.37 512h60.38a15.12 15.12 0 0015.02-15.13v-25.16h-90.42z"/><path fill="#3e4b5a" d="M159.95 496.87V471.7h-31.6v25.16A15.12 15.12 0 00143.37 512h31.6a15.12 15.12 0 01-15.02-15.13z"/><path fill="#feca57" d="M175.96.02A173.55 173.55 0 0051.3 296.73 159.97 159.97 0 0189.75 359l14.42 42.46a14.95 14.95 0 012.43-.22h133.92a14.85 14.85 0 012.43.22l14.42-42.46a161.23 161.23 0 0138.68-62.48A173.55 173.55 0 00175.96.01z"/><path fill="#f4b537" d="M120.66 359a159.97 159.97 0 00-38.45-62.26A173.57 173.57 0 01188.95.68Q182.52.1 175.96.02A173.55 173.55 0 0051.3 296.73 159.97 159.97 0 0189.75 359l14.42 42.46a14.83 14.83 0 012.43-.22H135zM240.52 401.23a14.85 14.85 0 012.43.22l.07-.22z"/><path fill="#e59d1f" d="M198.35 382.06a7.78 7.78 0 01-7.73-7.84c0-62.87 13.46-103.34 14.03-105.03a7.7 7.7 0 019.82-4.86 7.86 7.86 0 014.8 9.94c-.17.5-13.2 39.98-13.2 99.95a7.78 7.78 0 01-7.72 7.84zM148.77 382.06a7.78 7.78 0 01-7.73-7.84c0-60.06-13.06-99.56-13.2-99.95a7.86 7.86 0 014.82-9.94 7.7 7.7 0 019.8 4.86c.58 1.7 14.04 42.16 14.04 105.03a7.78 7.78 0 01-7.73 7.84z"/><path fill="#f4b537" d="M205.16 374.33h-63.2a13.65 13.65 0 00-13.6 13.61v13.3h90.4v-13.3a13.65 13.65 0 00-13.6-13.61z"/><path fill="#e59d1f" d="M172.53 374.33h-30.56a13.65 13.65 0 00-13.62 13.61v13.3h30.57v-13.3a13.65 13.65 0 0113.61-13.61z"/><path fill="#ccd2db" d="M240.52 400.4H106.6a15.12 15.12 0 00-15.02 15.14v6.93a15.12 15.12 0 0015.02 15.13h133.92a15.12 15.12 0 0015.02-15.13v-6.93a15.12 15.12 0 00-15.02-15.13z"/><path fill="#e4eaf8" d="M240.52 437.39H106.6a15.16 15.16 0 00-15.02 15.22v6.97a15.16 15.16 0 0015.02 15.22h133.92a15.16 15.16 0 0015.02-15.22v-6.97a15.16 15.16 0 00-15.02-15.22z"/><path fill="#bcc2cc" d="M240.52 417H106.6a15.04 15.04 0 01-13.37-8.3 15.07 15.07 0 00-1.65 6.84v6.93a15.12 15.12 0 0015.02 15.14h133.92a15.12 15.12 0 0015.02-15.14v-6.93a15.07 15.07 0 00-1.65-6.84 15.04 15.04 0 01-13.37 8.3z"/><path fill="#ccd2db" d="M240.52 454.2H106.6a15.03 15.03 0 01-13.4-8.4 15.23 15.23 0 00-1.62 6.81v6.97a15.16 15.16 0 0015.02 15.22h133.92a15.16 15.16 0 0015.02-15.22v-6.97a15.23 15.23 0 00-1.62-6.82 15.03 15.03 0 01-13.4 8.4z"/><path fill="#f4b537" d="M225.2 236.28H121.92a15.06 15.06 0 00-15.02 15.02v6.88a15.06 15.06 0 0015.02 15.02h103.3a15.06 15.06 0 0015.02-15.02v-6.88a15.06 15.06 0 00-15.02-15.02z"/><path fill="#e59d1f" d="M225.2 252.66H121.92a15.05 15.05 0 01-13.35-8.2 14.86 14.86 0 00-1.67 6.84v6.88a15.06 15.06 0 0015.02 15.02h103.3a15.06 15.06 0 0015.02-15.02v-6.88a14.88 14.88 0 00-1.67-6.83 15.05 15.05 0 01-13.35 8.19z"/></g></g></svg>