<svg xmlns="http://www.w3.org/2000/svg" width="511pt" height="511pt" viewBox="1 -50 511.99998 511"><path fill="#d2d2d2" d="M505.67 165.62s6.5-62-53-62l-8.2 31 35.43 33.77zm0 0"/><path fill="#d9a891" d="M512 186.52c0 20.8-16.86 37.65-37.66 37.65s-37.65-16.86-37.65-37.65 16.85-37.66 37.64-37.66S512 165.72 512 186.52zm0 0"/><path fill="#b6a4ff" d="M234.92 411.1l-50.24-103.7c61.4-24.84 111.76 0 111.76 0h108.63c12.18 10.38 50.24 47.32 50.24 103.7zm0 0"/><path fill="#d9a891" d="M383.02 319.45c0 17.82-14.45 32.26-32.27 32.26s-32.26-14.43-32.26-32.25c0-17.8 14.44-32.26 32.25-32.26s32.27 14.44 32.27 32.25zm0 0"/><path fill="#fbc4ac" d="M411.38 296.82s-23.07 26.7 0 43.03c11.03 7.8 20.98 4.62 28.35-.83 11.82-8.73 16.42-24.5 10.06-37.73-3.17-6.57-9.03-12.68-19.72-15.4zm0 0"/><path fill="#e3b098" d="M350.75 53.58c-72 0-130.36 59.5-130.36 132.94s58.35 132.93 130.35 132.93 130.36-59.5 130.36-132.93S422.76 53.58 350.76 53.58zm0 0"/><path fill="#d2d2d2" d="M173.76 43.9c0 23.96-19.43 43.4-43.4 43.4s-43.4-19.44-43.4-43.4c0-23.97 19.43-43.4 43.4-43.4s43.4 19.43 43.4 43.4zm0 0"/><path fill="#ff98c9" d="M234.92 411.1c0-56.38-38.06-93.32-50.24-103.7H76.05C63.87 317.78 25.8 354.72 25.8 411.1zm0 0"/><path fill="#e3b098" d="M162.63 319.45c0 17.82-14.45 32.26-32.27 32.26-17.8 0-32.26-14.43-32.26-32.25 0-17.8 14.45-32.26 32.26-32.26 17.82 0 32.26 14.44 32.26 32.25zm0 0M69.74 296.82s23.07 26.7 0 43.03c-11.03 7.8-20.98 4.62-28.36-.83-11.8-8.73-16.42-24.5-10.04-37.73 3.15-6.57 9-12.68 19.7-15.4zm0 0"/><path fill="#fbc4ac" d="M130.36 74.18C58.36 74.18 0 113.08 0 186.52s58.36 132.93 130.36 132.93c72 0 130.36-59.5 130.36-132.93S202.36 74.18 130.36 74.18zm0 0"/><path fill="#b8b8b8" d="M260.72 186.52c-43.23-106.5-130.36-61.3-130.36-61.3S43.24 80 0 186.5C0 113.1 58.36 53.58 130.36 53.58c72 0 130.36 59.5 130.36 132.94zm0 0"/><path fill="#3a484a" d="M420.24 214.07c-4.27 0-7.73-3.46-7.73-7.73v-13.5c0-4.27 3.47-7.73 7.74-7.73s7.72 3.47 7.72 7.73v13.5c0 4.28-3.46 7.74-7.72 7.74zm0 0"/><path fill="#f98084" d="M429.44 233.93h-18.4c-4.27 0-7.73-3.46-7.73-7.73 0-4.26 3.47-7.72 7.74-7.72h18.4c4.27 0 7.72 3.46 7.72 7.72 0 4.27-3.45 7.73-7.72 7.73zm0 0"/><path fill="#3a484a" d="M281.26 214.07c-4.27 0-7.73-3.46-7.73-7.73v-13.5c0-4.27 3.46-7.73 7.73-7.73 4.27 0 7.72 3.47 7.72 7.73v13.5c0 4.28-3.45 7.74-7.72 7.74zm0 0"/><path fill="#f98084" d="M290.46 233.93h-18.4c-4.27 0-7.73-3.46-7.73-7.73 0-4.26 3.46-7.72 7.73-7.72h18.4c4.27 0 7.73 3.46 7.73 7.72 0 4.27-3.47 7.73-7.74 7.73zm0 0"/><path fill="#3a484a" d="M199.85 214.07c-4.27 0-7.73-3.46-7.73-7.73v-13.5c0-4.27 3.46-7.73 7.73-7.73 4.27 0 7.72 3.47 7.72 7.73v13.5c0 4.28-3.45 7.74-7.72 7.74zm0 0"/><path fill="#f98084" d="M209.05 233.93h-18.4c-4.27 0-7.73-3.46-7.73-7.73 0-4.26 3.46-7.72 7.73-7.72h18.4c4.27 0 7.73 3.46 7.73 7.72 0 4.27-3.46 7.73-7.73 7.73zm0 0"/><path fill="#3a484a" d="M60.87 214.07c-4.27 0-7.73-3.46-7.73-7.73v-13.5c0-4.27 3.46-7.73 7.73-7.73 4.27 0 7.72 3.47 7.72 7.73v13.5c0 4.28-3.46 7.74-7.73 7.74zm0 0"/><path fill="#f98084" d="M70.07 233.93h-18.4c-4.27 0-7.73-3.46-7.73-7.73 0-4.26 3.46-7.72 7.73-7.72h18.4c4.27 0 7.73 3.46 7.73 7.72 0 4.27-3.46 7.73-7.73 7.73zm0 0"/><path fill="#3a484a" d="M130.36 233.17c-7.07 0-13.73-2.97-18.25-8.14-2.8-3.22-2.47-8.1.75-10.9 3.2-2.8 8.1-2.5 10.9.73 1.6 1.8 4 2.85 6.6 2.85s5.03-1.03 6.62-2.84c2.8-3.22 7.7-3.54 10.9-.74 3.22 2.8 3.54 7.7.74 10.9-4.52 5.18-11.17 8.15-18.24 8.15zm0 0"/><path fill="#eb6da8" d="M62.82 411.1v-35.33c0-4.27 3.46-7.73 7.73-7.73 4.27 0 7.72 3.46 7.72 7.73v35.33zm0 0M182.45 411.1v-35.33c0-4.27 3.46-7.73 7.73-7.73 4.27 0 7.72 3.46 7.72 7.73v35.33zm0 0"/><path fill="#937fe6" d="M402.84 411.1v-35.33c0-4.27 3.46-7.73 7.72-7.73 4.27 0 7.73 3.46 7.73 7.73v35.33zm0 0"/><path fill="#d2d2d2" d="M350.75 251.4c13.08 16.36 32.36 9.58 42.53 4.2 2.46-1.3 2.64-4.72.35-6.3-5.83-4.1-9.22-13.02-14.03-17.5-7.48-6.98-20.37-11.2-28.85-3.52-8.5-7.7-21.37-3.46-28.85 3.5-4.8 4.5-8.2 13.43-14.04 17.5-2.28 1.6-2.1 5.03.36 6.33 10.17 5.38 29.44 12.16 42.53-4.2zm0 0"/><g fill="#d9a891"><path d="M397.86 151.2h-94.2c-4.28 0-7.74-3.45-7.74-7.7s3.46-7.74 7.73-7.74h94.2c4.27 0 7.74 3.46 7.74 7.73s-3.48 7.7-7.74 7.7zm0 0M383.02 125.08H318.5c-4.27 0-7.73-3.46-7.73-7.73 0-4.26 3.46-7.72 7.72-7.72H383c4.26 0 7.72 3.46 7.72 7.72 0 4.27-3.46 7.73-7.72 7.73zm0 0"/></g></svg>