<svg xmlns="http://www.w3.org/2000/svg" viewBox="0 0 437.371 226.61"><g data-name="Layer 2"><g data-name="Layer 1"><path fill="#d84e4e" d="M437.37 113.36c0 62.54-97.82 113.25-218.5 113.25S.37 175.9.37 113.36h3.86a63.16 63.16 0 01-2.9-10.66C11.69 45.17 105.1.11 218.87.11S426.05 45.17 436.4 102.7a63.26 63.26 0 01-2.9 10.66z"/><path fill="#d84e4e" d="M437 113.25c0 62.54-97.81 113.25-218.5 113.25S0 175.79 0 113.25a59.45 59.45 0 01.96-10.66c10.37 57.53 103.79 102.6 217.54 102.6s207.18-45.07 217.54-102.6a59.36 59.36 0 01.97 10.66z"/><ellipse cx="218.504" cy="102.59" fill="#ff5f5f" rx="217.545" ry="102.59"/><path fill="#c45353" d="M363.33 112.02c-21.77 21.75-77.8 37.2-143.5 37.2-68.58 0-126.62-16.84-146.15-40.07a116.58 116.58 0 0112.6-10.72c27.68-20.67 79.27-45.13 134.88-45.13 61.37 0 111.1 28.4 134.87 51.05a90.91 90.91 0 017.3 7.67z"/></g></g></svg>