<svg xmlns="http://www.w3.org/2000/svg" viewBox="0 0 512.002 512.002" enable-background="new 0 0 512.002 512.002"><path fill="#5F6E9B" d="M442.73 92.36c-5.76-10.2-18.78-13.54-28.7-7.48l-61.7 37.73H191l-46.1-26.1 22.5-69.55C170.9 16.13 165 4.5 154.17 1c-10.83-3.5-22.44 2.44-25.94 13.26l-27.65 85.38c-3 9.24.87 19.3 9.28 24.18l80.38 46.5v105.82l-58.4 49.42c-8.05 6.82-10.88 18-7.05 27.85l33.7 86.43c4.95 12.72 19.28 19 32 14.06 12.72-4.97 19-19.3 14.05-32.02l-27.28-69.98 39.65-33.56 111.27 1.68-36.84 81.27c-5.64 12.42-.12 27.07 12.3 32.7 12.5 5.67 27.1.08 32.73-12.3l51.77-114.2c7.17-15.8-3.8-33.95-21.18-34.9l-67.6-3.66V163.8h58.77c3.8 0 7.5-1.04 10.75-3.02l66.23-40.5c9.53-5.8 13.12-18.2 7.63-27.92z"/><path fill="#FFB69E" d="M442.73 92.36c-5.76-10.2-18.78-13.54-28.7-7.48l-61.7 37.73H191l-46.1-26.1 22.5-69.55C170.9 16.13 165 4.5 154.17 1c-10.83-3.5-22.44 2.44-25.94 13.26l-27.65 85.38c-3 9.24.87 19.3 9.28 24.18l80.38 46.5v105.82c7.34 15.75 23.14 25.82 40.52 25.82h25.27c18.8 0 35.57-11.75 42-29.4l1.32-3.62V163.8h58.8c3.78 0 7.5-1.04 10.73-3.02l66.24-40.5c9.53-5.8 13.12-18.2 7.63-27.92z"/><path fill="#64AFFF" d="M264.84 122.6c.4 11.2-10.02 20.72-20.9 20.72-11.64 0-20.28-9.47-20.86-20.7h-32.1l-34.8-19.72-10.67 41.55 44.73 25.87v105.82c7.34 15.75 23.14 25.82 40.52 25.82h25.27c18.8 0 35.57-11.75 42-29.4l1.32-3.62V163.8h45.56v-41.2h-80.06z"/><circle cx="244.785" cy="64.299" r="42.692" fill="#FFB69E"/><circle cx="178.934" cy="477.878" r="34.124" fill="#3C5A73"/><circle cx="178.934" cy="477.878" r="12.532" fill="#fff"/><circle cx="347.969" cy="449.63" r="34.124" fill="#3C5A73"/><circle cx="347.969" cy="449.63" r="12.862" fill="#fff"/><path fill="#6C9BAA" d="M146.74 464.85c-25.8 0-51.06-7.67-72.8-22.37-7.54-5.1-9.52-15.33-4.43-22.88 5.1-7.54 15.35-9.52 22.9-4.42 20.77 14.03 45.83 19.5 70.56 15.36l184.73-30.87c24.72-4.13 46.64-17.43 61.73-37.46 5.47-7.26 15.8-8.72 23.07-3.24 7.27 5.47 8.73 15.8 3.25 23.08-20.2 26.8-49.53 44.6-82.63 50.14L168.4 463.04c-7.23 1.2-14.46 1.8-21.66 1.8z"/></svg>