<svg xmlns="http://www.w3.org/2000/svg" width="512" height="512"><path fill="#caedff" d="M443.14 29.62v159.96c0 9.25-4.25 17.51-10.9 22.94a29.46 29.46 0 01-18.72 6.67H98.48c-7.11 0-13.63-2.5-18.72-6.66-.01-.01 0-.01 0-.01a29.54 29.54 0 01-10.9-22.94V29.62A29.61 29.61 0 0198.48 0h315.04a29.61 29.61 0 0129.62 29.62z"/><path fill="#76c2e0" d="M160.13 100.02a7.71 7.71 0 01-6.15-3.04c-.23-.3-14.2-18.1-33.66-18.1a7.73 7.73 0 110-15.44c27.3 0 45.22 23.2 45.96 24.19a7.73 7.73 0 01-6.15 12.4zM345.1 88.6a7.72 7.72 0 01-4.52-14c.88-.62 21.87-15.34 58.16-15.34a7.73 7.73 0 110 15.45c-31.02 0-49.02 12.36-49.2 12.49a7.72 7.72 0 01-4.44 1.4zM168.52 219.2H98.48c-7.11 0-13.63-2.5-18.72-6.67-.02-.01 0-.01 0-.01a51.92 51.92 0 0188.76 6.67zM432.24 212.52s.02 0 0 0a29.46 29.46 0 01-18.72 6.67h-70.04a51.92 51.92 0 0188.77-6.68z"/><path fill="#76c2e0" d="M415.86 136.83a41.89 41.89 0 01-40.58 41.82 123.25 123.25 0 01-21.5 40.54H158.24a123.27 123.27 0 01-21.51-40.54 41.89 41.89 0 01-40.58-41.82 41.89 41.89 0 0143.95-41.8 124.62 124.62 0 0135.61-49.16A124.97 124.97 0 01256 16.64a124.5 124.5 0 0195.9 44.9 124.56 124.56 0 0120.02 33.5 41.89 41.89 0 0143.94 41.8z"/><path fill="#76c2e0" d="M443.14 29.62v159.96a29.62 29.62 0 01-29.62 29.62h-21.84a29.63 29.63 0 0029.62-29.62V29.62A29.62 29.62 0 00391.68 0h21.84a29.61 29.61 0 0129.62 29.62zM68.87 29.62v159.96a29.62 29.62 0 0029.61 29.62h21.84a29.63 29.63 0 01-29.61-29.62V29.62A29.62 29.62 0 01120.32 0H98.48a29.61 29.61 0 00-29.61 29.62z"/><circle cx="374.016" cy="136.835" r="24.723" fill="#d8ad8f"/><circle cx="137.984" cy="136.835" r="24.723" fill="#d8ad8f"/><g><path fill="#efcdb1" d="M363.74 141.5a107.71 107.71 0 01-32.84 77.42 107.29 107.29 0 01-69.35 30.17 107.36 107.36 0 01-80.47-30.16 108.3 108.3 0 01-14.18-16.86 107.17 107.17 0 01-18.63-60.57A107.07 107.07 0 01166.9 80.9a107.9 107.9 0 0119.81-21.9A107.22 107.22 0 01256 33.76c33.27 0 62.99 15.06 82.74 38.75a107.2 107.2 0 0125 69z"/><path fill="#d8ad8f" d="M345.1 202.07c-4.15 6.1-8.9 11.74-14.2 16.85a107.29 107.29 0 01-69.35 30.17 107.36 107.36 0 01-80.47-30.16 108.3 108.3 0 01-14.18-16.86h178.2z"/><path fill="#8b381e" d="M258.5 68.85a4.93 4.93 0 01-4.92 6.13C204.96 73.76 186.72 59 186.72 59A107.26 107.26 0 01256 33.76c33.26 0 62.98 15.06 82.72 38.75-35.5 2.65-61.04-4.6-73.71-9.47a4.92 4.92 0 00-6.53 5.8z"/><g fill="#8b381e"><path d="M311.13 153.89c-9.99 0-19.38-4.42-25.77-12.12a7.73 7.73 0 1111.9-9.87 17.98 17.98 0 0013.87 6.53c5.37 0 10.42-2.38 13.85-6.52a7.73 7.73 0 1111.9 9.85 33.35 33.35 0 01-25.74 12.13zM200.88 153.89c-9.99 0-19.38-4.42-25.77-12.12a7.73 7.73 0 1111.9-9.87 17.97 17.97 0 0013.87 6.53c5.38 0 10.43-2.38 13.86-6.52a7.72 7.72 0 1111.9 9.85 33.35 33.35 0 01-25.75 12.13z"/></g><path fill="#ff8859" d="M266.13 189.4h-20.26a7.73 7.73 0 01-7.72-7.73v-47.83a7.73 7.73 0 1115.45 0v40.1h12.53a7.73 7.73 0 110 15.45z"/></g><g><path fill="#fec007" d="M461.99 512H50.01a8.3 8.3 0 01-8.3-8.3V230.36c0-6.17 5-11.17 11.17-11.17h406.24c6.17 0 11.17 5 11.17 11.17V503.7a8.3 8.3 0 01-8.3 8.3z"/><path fill="#fe9700" d="M198.91 299a7.72 7.72 0 01-6.68-3.83c-6.71-11.52-16.59-17.9-29.36-18.98a48.63 48.63 0 00-17.65 1.81 7.72 7.72 0 11-5.06-14.6c14.8-5.13 47.53-6.73 65.42 24a7.73 7.73 0 01-6.67 11.6zM332.27 285.15a7.73 7.73 0 01-6.55-11.81c8.13-13.05 30.98-18.36 33.56-18.92a7.72 7.72 0 113.3 15.1c-7.84 1.72-20.38 6.59-23.74 11.99a7.72 7.72 0 01-6.57 3.64zM143.46 483.32a7.73 7.73 0 01-7.13-4.75C113.6 424.25 125.48 340.21 126 336.66a7.72 7.72 0 1115.29 2.22c-.12.83-11.77 83.38 9.3 133.73a7.73 7.73 0 01-7.13 10.71zM366.94 483.32a7.73 7.73 0 01-7.66-8.84c.13-.82 11.77-83.37-9.29-133.73a7.73 7.73 0 1114.26-5.96c22.72 54.33 10.85 138.37 10.33 141.92a7.73 7.73 0 01-7.64 6.61zM461.99 512h-18.85V219.2h15.98c6.17 0 11.17 5 11.17 11.16V503.7a8.3 8.3 0 01-8.3 8.3zM68.86 512H50.01a8.3 8.3 0 01-8.3-8.3V230.36c0-6.17 5-11.17 11.17-11.17h15.98V512z"/></g><g><circle cx="389.878" cy="242.582" r="34.845" fill="#efcdb1"/><circle cx="122.122" cy="242.582" r="34.845" fill="#efcdb1"/></g></svg>