<svg xmlns="http://www.w3.org/2000/svg" viewBox="0 0 447 453.87"><defs><style>.cls-1{fill:#fed370;}.cls-2{fill:#fc5921;}.cls-3{fill:#fda736;}.cls-4{fill:#fd8f07;}.cls-5{fill:#fd7504;}</style></defs><title>sun</title><g id="Layer_2"><g id="Layer_1-2"><path d="M224.38.63c11.18 32.7 54 40.25 75.7 13.35a.93.93 0 0 1 1.65.6c-.68 34.55 37 56.3 66.56 38.43a.93.93 0 0 1 1.34 1.14C357.2 86.38 385.14 119.7 419 113a.94.94 0 0 1 .9 1.53c-22.74 26-7.87 66.9 26.28 72.22a.93.93 0 0 1 .3 1.73c-30.26 16.7-30.26 60.18 0 76.86a.93.93 0 0 1-.3 1.74c-34.15 5.33-49 46.2-26.3 72.23a.93.93 0 0 1-.88 1.53c-33.9-6.67-61.85 26.65-49.4 58.88a.93.93 0 0 1-1.35 1.14c-29.58-17.86-67.24 3.88-66.56 38.43a.93.93 0 0 1-1.66.6c-21.7-26.9-64.52-19.35-75.7 13.35a.93.93 0 0 1-1.76 0c-11.18-32.7-54-40.25-75.7-13.34a.94.94 0 0 1-1.65-.6c.68-34.56-37-56.3-66.56-38.44a.93.93 0 0 1-1.35-1.13c12.45-32.22-15.5-65.54-49.4-58.87a.93.93 0 0 1-.88-1.52c22.72-26 7.85-66.9-26.3-72.22a.93.93 0 0 1-.3-1.74c30.26-16.68 30.26-60.17 0-76.86a.93.93 0 0 1 .3-1.73c34.15-5.33 49-46.2 26.3-72.22A.93.93 0 0 1 28 113c33.9 6.67 61.86-26.64 49.4-58.88A.93.93 0 0 1 78.7 53c29.6 17.86 67.25-3.88 66.57-38.43a.93.93 0 0 1 1.66-.6c21.68 26.9 64.5 19.35 75.7-13.35a.93.93 0 0 1 1.75 0z" class="cls-1"/><path d="M442.9 271.93zm0 0z" class="cls-2"/><path d="M223.5 393.22c-91.7 0-166.28-74.6-166.28-166.3S131.82 60.66 223.5 60.66s166.3 74.6 166.3 166.28-74.6 166.3-166.3 166.3z" class="cls-3"/><path d="M373.73 226.93a150.3 150.3 0 0 1-176.16 148 146.15 146.15 0 0 1-17.16-4 150.23 150.23 0 0 1-69.63-44.64 150.38 150.38 0 0 1-37.5-99.33A150.27 150.27 0 0 1 251 79.23a148.5 148.5 0 0 1 17 4.18 150.35 150.35 0 0 1 105.7 143.53z" class="cls-4"/><path d="M373.73 226.93a150.26 150.26 0 0 1-170.06 148.92 150.24 150.24 0 0 0 0-297.83 150.33 150.33 0 0 1 170.06 148.9z" class="cls-5"/><path d="M229.17 207.9l-117.9 117.9c-.16.15-.33.3-.5.45a148.42 148.42 0 0 1-9.38-11.8L218.56 197.3a7.5 7.5 0 1 1 10.6 10.6zM216.07 296.7a7.5 7.5 0 0 1-5.3-12.8l28.57-28.57a7.5 7.5 0 0 1 10.66 10.6l-28.58 28.58a7.44 7.44 0 0 1-5.35 2.2zM268 83.4L158.72 192.7a7.5 7.5 0 0 1-10.6-10.6L251 79.24a148.5 148.5 0 0 1 17 4.18zM273 305a7.5 7.5 0 0 1-5.3-12.8l11.66-11.67A7.5 7.5 0 0 1 290 291.1l-11.67 11.68A7.44 7.44 0 0 1 273 305zM305.7 272.3a7.5 7.5 0 0 1-5.3-12.8l35.5-35.5a7.5 7.5 0 1 1 10.62 10.6L311 270.1a7.46 7.46 0 0 1-5.3 2.2zM340.94 133.25l-55.58 55.58a7.52 7.52 0 0 1-10.6 0 7.5 7.5 0 0 1 0-10.6L331 122a149.9 149.9 0 0 1 9.94 11.25zM210.85 361.66l-13.28 13.27a146.15 146.15 0 0 1-17.16-4l19.84-19.84a7.5 7.5 0 1 1 10.6 10.6z" class="cls-2"/></g></g></svg>