<svg xmlns="http://www.w3.org/2000/svg" viewBox="0 0 511.999 511.999" enable-background="new 0 0 511.999 511.999"><g fill="#03AA6F"><path d="M441.37 79.52L414.9 97.18l-44.15-8.83-26.5-8.83-35.3 8.83-26.48-8.83 17.65-35.3h35.3l34.62-17.32c26.7 13.2 50.83 31.02 71.33 52.62zM238.32 44.2l-8.82 26.5L203 79.5l-26.47 44.14-44.14 26.48-61.8 8.83v26.5l17.65 17.64v35.33l-26.5-17.66L35.3 203.1l-15.36-46.16c26.44-63 76.98-112.8 140.36-138.34l25.08 16.78 52.96 8.83zM255.98 291.4l-8.83 44.14-35.3 35.3v26.5l-35.32 26.48v44.14l-26.5-8.83L132.4 415v-88.3l-44.15-8.82-17.66-35.3v-26.5l17.65-17.65 26.48-26.5 17.66 35.32h61.78l26.5 44.14zM479.33 131c48.2 85.96 42.7 191.98-14.12 272.5l-23.83-23.82v-35.32l-17.65-35.3-17.66-35.32v-35.3l-26.48-17.67-35.32 8.83-61.8-26.5-8.82-61.78 26.48-26.5h52.97l17.65 26.5 52.97 8.82 52.97-17.65 2.63-1.5z"/></g><path fill="#86DAF1" d="M308.95 88.35l35.3-8.83 26.5 8.83 44.14 8.82 26.48-17.65C456.16 95 468.92 112.3 479.34 131l-2.65 1.5-52.98 17.64-52.97-8.82-17.66-26.5h-52.97l-26.5 26.5 8.84 61.8 61.8 26.48 35.3-8.83 26.5 17.66v35.3l17.65 35.32 17.65 35.32v35.3l23.84 23.84c-81.52 115.54-241.26 143.1-356.78 61.56-98.1-69.25-134.9-197.37-88.5-308.12l15.36 46.17 26.48 17.67 26.5 17.65-17.67 17.66v26.5l17.65 35.3 44.14 8.83V415l17.64 44.13 26.5 8.83v-44.14l35.3-26.5v-26.47l35.3-35.32L256 291.4h-35.3l-26.5-44.15h-61.8l-17.65-35.3-26.48 26.47v-35.3L70.6 185.45v-26.5l61.8-8.82 44.13-26.48L203 79.52l26.5-8.83 8.83-26.5-52.97-8.82-25.08-16.78c67.9-27.34 144.24-24.32 209.76 8.3l-34.6 17.3h-35.32l-17.65 35.32 26.48 8.83z"/></svg>