<?xml version="1.0" encoding="UTF-8" standalone="no"?><!DOCTYPE svg PUBLIC "-//W3C//DTD SVG 1.1//EN" "http://www.w3.org/Graphics/SVG/1.1/DTD/svg11.dtd"><svg width="100%" height="100%" viewBox="0 0 1834 1834" version="1.1" xmlns="http://www.w3.org/2000/svg" xmlns:xlink="http://www.w3.org/1999/xlink" xml:space="preserve" xmlns:serif="http://www.serif.com/" style="fill-rule:evenodd;clip-rule:evenodd;stroke-linejoin:round;stroke-miterlimit:2;"><rect id="Artboard2" x="0" y="-0" width="1833.33" height="1833.33" style="fill:none;"/><clipPath id="_clip1"><rect id="Artboard21" serif:id="Artboard2" x="0" y="-0" width="1833.33" height="1833.33"/></clipPath><g clip-path="url(#_clip1)"><path d="M1616.67,808.333c-0,446.132 -362.202,808.334 -808.334,808.334c-446.131,-0 -808.333,-362.202 -808.333,-808.334c0,-446.131 362.202,-808.333 808.333,-808.333c446.132,-0 808.334,362.202 808.334,808.333Z" style="fill:url(#_Linear2);"/><clipPath id="_clip3"><path d="M1616.67,808.333c-0,446.132 -362.202,808.334 -808.334,808.334c-446.131,-0 -808.333,-362.202 -808.333,-808.334c0,-446.131 362.202,-808.333 808.333,-808.333c446.132,-0 808.334,362.202 808.334,808.333Z"/></clipPath><g clip-path="url(#_clip3)"><path d="M1455.03,808.333c0,356.924 -289.777,646.701 -646.701,646.701c-356.924,0 -646.701,-289.777 -646.701,-646.701c0,-356.924 289.777,-646.701 646.701,-646.701c356.924,0 646.701,289.777 646.701,646.701Z" style="fill:url(#_Linear4);"/><path d="M1293.34,808.333c0,267.682 -217.324,485.006 -485.006,485.006c-267.682,0 -485.005,-217.324 -485.005,-485.006c-0,-267.682 217.323,-485.005 485.005,-485.005c267.682,-0 485.006,217.323 485.006,485.005Z" style="fill:url(#_Linear5);"/><path d="M1131.67,808.333c0,178.456 -144.883,323.339 -323.339,323.339c-178.455,0 -323.339,-144.883 -323.339,-323.339c0,-178.455 144.884,-323.339 323.339,-323.339c178.456,0 323.339,144.884 323.339,323.339Z" style="fill:url(#_Linear6);"/><circle cx="1206.16" cy="1198.58" r="833.492" style="fill:url(#_Radial7);"/></g><path d="M1833.33,1198.58c0,346.144 -281.024,627.168 -627.168,627.168c-346.144,0 -627.169,-281.024 -627.169,-627.168c0,-346.144 281.025,-627.168 627.169,-627.168c346.144,-0 627.168,281.024 627.168,627.168Z" style="fill:url(#_Linear8);"/><clipPath id="_clip9"><path d="M1833.33,1198.58c0,346.144 -281.024,627.168 -627.168,627.168c-346.144,0 -627.169,-281.024 -627.169,-627.168c0,-346.144 281.025,-627.168 627.169,-627.168c346.144,-0 627.168,281.024 627.168,627.168Z"/></clipPath><g clip-path="url(#_clip9)"><path d="M1707.93,1198.58c0,276.93 -224.832,501.761 -501.761,501.761c-276.93,0 -501.761,-224.831 -501.761,-501.761c-0,-276.93 224.831,-501.761 501.761,-501.761c276.929,-0 501.761,224.831 501.761,501.761Z" style="fill:url(#_Linear10);"/><path d="M1582.47,1198.58c0,207.689 -168.616,376.306 -376.305,376.306c-207.689,-0 -376.306,-168.617 -376.306,-376.306c0,-207.689 168.617,-376.305 376.306,-376.305c207.689,-0 376.305,168.616 376.305,376.305Z" style="fill:url(#_Linear11);"/><path d="M1457.04,1198.58c-0,138.46 -112.412,250.872 -250.872,250.872c-138.46,-0 -250.872,-112.412 -250.872,-250.872c0,-138.46 112.412,-250.872 250.872,-250.872c138.46,0 250.872,112.412 250.872,250.872Z" style="fill:url(#_Linear12);"/></g></g><defs><linearGradient id="_Linear2" x1="0" y1="0" x2="1" y2="0" gradientUnits="userSpaceOnUse" gradientTransform="matrix(-6.96297e-14,1616.67,-1616.67,-7.65927e-13,808.333,-1.39266e-12)"><stop offset="0" style="stop-color:#f678ce;stop-opacity:1"/><stop offset="1" style="stop-color:#e00d6f;stop-opacity:1"/></linearGradient><linearGradient id="_Linear4" x1="0" y1="0" x2="1" y2="0" gradientUnits="userSpaceOnUse" gradientTransform="matrix(-5.57067e-14,1293.4,-1293.4,-6.12774e-13,808.333,161.632)"><stop offset="0" style="stop-color:#d46abd;stop-opacity:1"/><stop offset="1" style="stop-color:#99166d;stop-opacity:1"/></linearGradient><linearGradient id="_Linear5" x1="0" y1="0" x2="1" y2="0" gradientUnits="userSpaceOnUse" gradientTransform="matrix(-4.17783e-14,970.011,-970.011,-4.59561e-13,808.333,323.328)"><stop offset="0" style="stop-color:#ae5dab;stop-opacity:1"/><stop offset="1" style="stop-color:#6e1e6a;stop-opacity:1"/></linearGradient><linearGradient id="_Linear6" x1="0" y1="0" x2="1" y2="0" gradientUnits="userSpaceOnUse" gradientTransform="matrix(-2.78524e-14,646.678,-646.678,-3.06376e-13,808.333,484.994)"><stop offset="0" style="stop-color:#6d4a8d;stop-opacity:1"/><stop offset="1" style="stop-color:#3e225f;stop-opacity:1"/></linearGradient><radialGradient id="_Radial7" cx="0" cy="0" r="1" gradientUnits="userSpaceOnUse" gradientTransform="matrix(833.492,0,9.00671e-14,833.492,1206.16,1198.58)"><stop offset="0" style="stop-color:#231b32;stop-opacity:0.3"/><stop offset="1" style="stop-color:#000;stop-opacity:0"/></radialGradient><linearGradient id="_Linear8" x1="0" y1="0" x2="1" y2="0" gradientUnits="userSpaceOnUse" gradientTransform="matrix(0,1254.34,-1254.34,-8.35556e-13,1206.16,571.41)"><stop offset="0" style="stop-color:#f678ce;stop-opacity:1"/><stop offset="1" style="stop-color:#e00d6f;stop-opacity:1"/></linearGradient><linearGradient id="_Linear10" x1="0" y1="0" x2="1" y2="0" gradientUnits="userSpaceOnUse" gradientTransform="matrix(0,1003.52,-1003.52,-6.6848e-13,1206.16,696.817)"><stop offset="0" style="stop-color:#d46abd;stop-opacity:1"/><stop offset="1" style="stop-color:#99166d;stop-opacity:1"/></linearGradient><linearGradient id="_Linear11" x1="0" y1="0" x2="1" y2="0" gradientUnits="userSpaceOnUse" gradientTransform="matrix(0,752.611,-752.611,-5.0134e-13,1206.16,822.273)"><stop offset="0" style="stop-color:#ae5dab;stop-opacity:1"/><stop offset="1" style="stop-color:#6e1e6a;stop-opacity:1"/></linearGradient><linearGradient id="_Linear12" x1="0" y1="0" x2="1" y2="0" gradientUnits="userSpaceOnUse" gradientTransform="matrix(0,501.744,-501.744,-3.34228e-13,1206.16,947.706)"><stop offset="0" style="stop-color:#6d4a8d;stop-opacity:1"/><stop offset="1" style="stop-color:#3e225f;stop-opacity:1"/></linearGradient></defs></svg>